<svg width="86" height="32" viewBox="0 0 86 32" fill="none" xmlns="http://www.w3.org/2000/svg">
<path fill-rule="evenodd" clip-rule="evenodd" d="M2.91992 5.64703C2.91992 2.52826 5.44818 0 8.56695 0H20.8022V3.76469C20.8022 5.211 20.2585 6.53031 19.3643 7.52938C20.2585 8.52845 20.8022 9.84776 20.8022 11.2941V15.0588L2.91992 15.0588V5.64703ZM17.0375 3.76469L8.56695 3.76469C7.52736 3.76469 6.68461 4.60744 6.68461 5.64703L6.68461 11.2941H17.0375C17.0375 10.2551 16.1958 9.41273 15.157 9.41172H8.56695V5.64703L15.1552 5.64703C16.1947 5.64703 17.0375 4.80428 17.0375 3.76469Z" fill="white"/>
<path fill-rule="evenodd" clip-rule="evenodd" d="M28.3326 0C25.2138 0 22.6855 2.52826 22.6855 5.64703V15.0588L34.9208 15.0588C38.0396 15.0588 40.5678 12.5305 40.5678 9.41172V0H28.3326ZM36.8031 3.76469L28.3326 3.76469C27.293 3.76469 26.4502 4.60744 26.4502 5.64703V11.2941L34.9208 11.2941C35.9604 11.2941 36.8031 10.4513 36.8031 9.41172L36.8031 3.76469Z" fill="white"/>
<path d="M48.0953 0C44.9765 0 42.4482 2.52826 42.4482 5.64703V15.0588L60.3305 15.0588V11.2941L46.2129 11.2941V5.64703C46.2129 4.60744 47.0557 3.76469 48.0953 3.76469L60.3305 3.76469V0H48.0953Z" fill="white"/>
<path fill-rule="evenodd" clip-rule="evenodd" d="M61.2852 15.0588L65.4488 3.70307C66.2643 1.47877 68.3816 0 70.7507 0H73.0213C75.3903 0 77.5075 1.47872 78.3231 3.70296L82.487 15.0588H78.4772L77.0968 11.2941H66.7094V11.2011L65.2949 15.0588H61.2852ZM75.7164 7.52941L74.7885 4.99901C74.5167 4.2576 73.8109 3.76469 73.0213 3.76469L70.7507 3.76469C69.961 3.76469 69.2552 4.25761 68.9834 4.99905L68.0556 7.52941H75.7164Z" fill="white"/>
<path fill-rule="evenodd" clip-rule="evenodd" d="M64.0078 31.9982L68.1714 20.6425C68.987 18.4182 71.1042 16.9395 73.4733 16.9395H75.7439C78.113 16.9395 80.2302 18.4182 81.0458 20.6424L85.2097 31.9982H81.1999L79.8195 28.2335H69.432V28.1406L68.0176 31.9982H64.0078ZM78.439 24.4689L77.5112 21.9385C77.2393 21.197 76.5336 20.7041 75.7439 20.7041L73.4733 20.7041C72.6836 20.7041 71.9779 21.1971 71.706 21.9385L70.7783 24.4689H78.439Z" fill="white"/>
<path d="M19.7656 31.9982V16.9395H23.5303V22.5865H33.8832V16.9395H37.6479V31.9982H33.8832V26.3512H23.5303V31.9982H19.7656Z" fill="white"/>
<path fill-rule="evenodd" clip-rule="evenodd" d="M43.293 16.9395L43.293 31.9982L39.5283 31.9982L39.5283 16.9395L43.293 16.9395Z" fill="white"/>
<path fill-rule="evenodd" clip-rule="evenodd" d="M5.64703 16.9395C2.52826 16.9395 0 19.4677 0 22.5865V31.9982L17.8823 31.9982V28.2335L3.76469 28.2335V22.5865C3.76469 21.5469 4.60744 20.7041 5.64703 20.7041L17.8823 20.7041V16.9395H5.64703Z" fill="white"/>
<path d="M50.8228 16.9395C47.704 16.9395 45.1758 19.4677 45.1758 22.5865V31.9982L63.0581 31.9982V28.2335L48.9405 28.2335V22.5865C48.9405 21.5469 49.7832 20.7041 50.8228 20.7041L63.0581 20.7041V16.9395H50.8228Z" fill="white"/>
</svg>
