<svg width="200" height="200" viewBox="0 0 200 200" fill="none" xmlns="http://www.w3.org/2000/svg">
<path d="M200 0H0V200H200V0Z" fill="#FAFAFA"/>
<path d="M56.2544 139H57.7906V134.56H62.1159V133.243H57.7906V130.141H62.5683V128.818H56.2544V139ZM66.5331 139.169C67.7959 139.169 68.5068 138.528 68.7902 137.956H68.8499V139H70.3016V133.929C70.3016 131.707 68.5516 131.264 67.3385 131.264C65.9564 131.264 64.6837 131.821 64.1865 133.213L65.5835 133.531C65.8023 132.989 66.3591 132.467 67.3584 132.467C68.3179 132.467 68.8101 132.969 68.8101 133.835V133.869C68.8101 134.411 68.2533 134.401 66.8811 134.56C65.4344 134.729 63.9529 135.107 63.9529 136.842C63.9529 138.344 65.0814 139.169 66.5331 139.169ZM66.8563 137.976C66.0161 137.976 65.4095 137.598 65.4095 136.862C65.4095 136.067 66.1155 135.783 66.9756 135.669C67.4578 135.604 68.6013 135.475 68.8151 135.261V136.246C68.8151 137.151 68.0942 137.976 66.8563 137.976ZM72.2815 139H73.768V131.364H72.2815V139ZM73.0322 130.185C73.5443 130.185 73.9719 129.788 73.9719 129.3C73.9719 128.813 73.5443 128.411 73.0322 128.411C72.5152 128.411 72.0926 128.813 72.0926 129.3C72.0926 129.788 72.5152 130.185 73.0322 130.185ZM77.2544 128.818H75.7678V139H77.2544V128.818ZM82.5454 139.154C84.2108 139.154 85.3891 138.334 85.7272 137.091L84.3202 136.837C84.0518 137.558 83.4055 137.926 82.5603 137.926C81.2876 137.926 80.4324 137.101 80.3927 135.629H85.8216V135.102C85.8216 132.343 84.1711 131.264 82.441 131.264C80.3131 131.264 78.9111 132.885 78.9111 135.232C78.9111 137.603 80.2932 139.154 82.5454 139.154ZM80.3976 134.516C80.4573 133.432 81.2428 132.492 82.4509 132.492C83.6043 132.492 84.36 133.347 84.365 134.516H80.3976ZM90.3296 139.149C91.7217 139.149 92.2686 138.299 92.537 137.812H92.6613V139H94.113V128.818H92.6265V132.602H92.537C92.2686 132.129 91.7615 131.264 90.3396 131.264C88.4951 131.264 87.1379 132.721 87.1379 135.197C87.1379 137.668 88.4752 139.149 90.3296 139.149ZM90.6578 137.881C89.3303 137.881 88.6393 136.713 88.6393 135.182C88.6393 133.665 89.3154 132.527 90.6578 132.527C91.9553 132.527 92.6514 133.586 92.6514 135.182C92.6514 136.788 91.9404 137.881 90.6578 137.881ZM103.504 131.364H101.938V129.534H100.452V131.364H99.3332V132.557H100.452V137.066C100.447 138.453 101.506 139.124 102.679 139.099C103.151 139.094 103.47 139.005 103.644 138.94L103.375 137.712C103.276 137.732 103.092 137.777 102.853 137.777C102.371 137.777 101.938 137.618 101.938 136.758V132.557H103.504V131.364ZM108.283 139.154C110.436 139.154 111.843 137.578 111.843 135.217C111.843 132.84 110.436 131.264 108.283 131.264C106.131 131.264 104.724 132.84 104.724 135.217C104.724 137.578 106.131 139.154 108.283 139.154ZM108.288 137.906C106.881 137.906 106.225 136.678 106.225 135.212C106.225 133.75 106.881 132.507 108.288 132.507C109.685 132.507 110.342 133.75 110.342 135.212C110.342 136.678 109.685 137.906 108.288 137.906ZM118.694 128.818H117.207V139H118.694V128.818ZM123.91 139.154C126.063 139.154 127.47 137.578 127.47 135.217C127.47 132.84 126.063 131.264 123.91 131.264C121.758 131.264 120.351 132.84 120.351 135.217C120.351 137.578 121.758 139.154 123.91 139.154ZM123.915 137.906C122.508 137.906 121.852 136.678 121.852 135.212C121.852 133.75 122.508 132.507 123.915 132.507C125.312 132.507 125.968 133.75 125.968 135.212C125.968 136.678 125.312 137.906 123.915 137.906ZM131.351 139.169C132.614 139.169 133.325 138.528 133.609 137.956H133.668V139H135.12V133.929C135.12 131.707 133.37 131.264 132.157 131.264C130.775 131.264 129.502 131.821 129.005 133.213L130.402 133.531C130.621 132.989 131.177 132.467 132.177 132.467C133.136 132.467 133.628 132.969 133.628 133.835V133.869C133.628 134.411 133.072 134.401 131.699 134.56C130.253 134.729 128.771 135.107 128.771 136.842C128.771 138.344 129.9 139.169 131.351 139.169ZM131.675 137.976C130.834 137.976 130.228 137.598 130.228 136.862C130.228 136.067 130.934 135.783 131.794 135.669C132.276 135.604 133.42 135.475 133.633 135.261V136.246C133.633 137.151 132.913 137.976 131.675 137.976ZM139.959 139.149C141.351 139.149 141.897 138.299 142.166 137.812H142.29V139H143.742V128.818H142.255V132.602H142.166C141.897 132.129 141.39 131.264 139.968 131.264C138.124 131.264 136.767 132.721 136.767 135.197C136.767 137.668 138.104 139.149 139.959 139.149ZM140.287 137.881C138.959 137.881 138.268 136.713 138.268 135.182C138.268 133.665 138.944 132.527 140.287 132.527C141.584 132.527 142.28 133.586 142.28 135.182C142.28 136.788 141.569 137.881 140.287 137.881Z" fill="#B4B4B4"/>
<path fill-rule="evenodd" clip-rule="evenodd" d="M80 84.6316C80 77.6554 85.6554 72 92.6316 72H120V80.4211C120 83.6562 118.784 86.6073 116.784 88.8421C118.784 91.0769 120 94.028 120 97.2632V105.684L80 105.684V84.6316ZM111.579 80.4211L92.6316 80.4211C90.3062 80.4211 88.4211 82.3062 88.4211 84.6316L88.4211 97.2632H111.579C111.579 94.9391 109.696 93.0549 107.373 93.0526H92.6316V84.6316L107.368 84.6316C109.694 84.6316 111.579 82.7465 111.579 80.4211Z" fill="#ABABAB"/>
</svg>
