<svg width="32" height="32" viewBox="0 0 32 32" fill="white" xmlns="http://www.w3.org/2000/svg">
<path d="M17.7086 15.7702C17.7086 19.9599 14.3414 23.3563 10.1879 23.3563C6.03447 23.3563 2.66699 19.9591 2.66699 15.7702C2.66699 11.5813 6.03421 8.1839 10.1879 8.1839C14.3416 8.1839 17.7086 11.5805 17.7086 15.7702Z"/>
<path d="M25.9584 15.7702C25.9584 19.7139 24.2748 22.9122 22.198 22.9122C20.1211 22.9122 18.4375 19.7139 18.4375 15.7702C18.4375 11.8266 20.1209 8.6283 22.1977 8.6283C24.2746 8.6283 25.9582 11.8255 25.9582 15.7702"/>
<path d="M29.3333 15.7702C29.3333 19.3028 28.7413 22.1683 28.0108 22.1683C27.2803 22.1683 26.6885 19.3036 26.6885 15.7702C26.6885 12.2369 27.2805 9.37218 28.0108 9.37218C28.7411 9.37218 29.3333 12.2366 29.3333 15.7702Z"/>
</svg>
