<svg width="32" height="32" viewBox="0 0 32 32" fill="white" xmlns="http://www.w3.org/2000/svg">
<path fill-rule="evenodd" clip-rule="evenodd" d="M4.27104 15.6562C10.5345 12.9278 14.7111 11.1291 16.8009 10.2601C22.7677 7.77874 24.0075 7.34771 24.8157 7.33348C24.9934 7.33035 25.3908 7.37439 25.6482 7.58323C25.8656 7.75957 25.9254 7.99778 25.954 8.16498C25.9826 8.33217 26.0183 8.71303 25.9899 9.01063C25.6666 12.4074 24.2675 20.6503 23.5557 24.4547C23.2545 26.0645 22.6615 26.6042 22.0874 26.6571C20.8397 26.7719 19.8922 25.8327 18.6838 25.0406C16.7928 23.8013 15.7245 23.0298 13.8889 21.8204C11.7676 20.4228 13.1428 19.6546 14.3517 18.3992C14.6681 18.0707 20.1655 13.0713 20.2719 12.6178C20.2852 12.5611 20.2975 12.3496 20.1719 12.238C20.0463 12.1264 19.8609 12.1645 19.7271 12.1949C19.5374 12.2379 16.5165 14.2343 10.6643 18.1839C9.80685 18.7726 9.03018 19.0594 8.3343 19.0444C7.56716 19.0278 6.09148 18.6107 4.99446 18.2542C3.64893 17.8169 2.57952 17.5857 2.67264 16.843C2.72115 16.4562 3.25394 16.0606 4.27104 15.6562Z" />
</svg>
