<svg width="32" height="32" viewBox="0 0 32 32" fill="white" xmlns="http://www.w3.org/2000/svg">
<path d="M12.9366 25.3331C14.7042 25.3448 16.4566 25.0081 18.0924 24.3424C19.7282 23.6768 21.2149 22.6955 22.4665 21.4553C23.7181 20.215 24.7097 18.7405 25.384 17.117C26.0582 15.4936 26.4018 13.7533 26.3947 11.9971C26.3947 11.7914 26.3947 11.5887 26.3947 11.3889C27.3211 10.7096 28.1174 9.87075 28.7457 8.91209C27.8831 9.29232 26.968 9.54189 26.031 9.65248C27.029 9.05518 27.7711 8.11399 28.1158 7.0082C27.1857 7.5545 26.1686 7.93904 25.1083 8.14524C24.3947 7.39302 23.4517 6.8951 22.425 6.72838C21.3982 6.56166 20.3447 6.7354 19.4272 7.22278C18.5097 7.71016 17.7792 8.48406 17.3485 9.42501C16.9178 10.366 16.8108 11.4216 17.0441 12.429C15.162 12.3361 13.3205 11.851 11.6393 11.0052C9.95813 10.1594 8.47474 8.97175 7.28543 7.51943C6.68073 8.55437 6.4955 9.77931 6.76742 10.9451C7.03934 12.1109 7.74798 13.13 8.74923 13.7952C7.98867 13.7943 7.23971 13.6098 6.56684 13.2575C6.56684 13.2575 6.56684 13.2575 6.56684 13.3192C6.5676 14.4048 6.94603 15.4567 7.63801 16.2969C8.32998 17.137 9.29297 17.7136 10.3639 17.9291C9.66663 18.1175 8.93523 18.1446 8.22581 18.0084C8.52965 18.9443 9.12086 19.7621 9.91643 20.347C10.712 20.9319 11.672 21.2546 12.6616 21.2697C10.9838 22.5769 8.91189 23.2848 6.77976 23.2794C6.41218 23.2797 6.04489 23.2591 5.67969 23.2177C7.84395 24.6007 10.3633 25.3351 12.9366 25.3331Z" />
</svg>
