<svg width="20" height="22" viewBox="0 0 20 22" fill="none" xmlns="http://www.w3.org/2000/svg">
<path fill-rule="evenodd" clip-rule="evenodd" d="M11.3982 0.0826934C11.8054 0.259462 12.0474 0.683531 11.9923 1.12403L11.1328 8H19C19.388 8 19.741 8.22445 19.9056 8.57584C20.0702 8.92722 20.0166 9.3421 19.7682 9.64018L9.76823 21.6402C9.48404 21.9812 9.00903 22.0941 8.60182 21.9173C8.1946 21.7405 7.95267 21.3165 8.00773 20.876L8.86723 14H1.00001C0.611995 14 0.259003 13.7755 0.0944228 13.4242C-0.070157 13.0728 -0.0166119 12.6579 0.231791 12.3598L10.2318 0.35981C10.516 0.0187763 10.991 -0.0940753 11.3982 0.0826934ZM3.13505 12H10C10.2868 12 10.5599 12.1232 10.7497 12.3382C10.9395 12.5532 11.0279 12.8394 10.9923 13.124L10.4154 17.7395L16.865 10H10C9.71318 10 9.44016 9.87683 9.25033 9.6618C9.06051 9.44677 8.97216 9.16058 9.00773 8.87596L9.58467 4.26045L3.13505 12Z" fill="white"/>
</svg>
