<svg width="20" height="14" viewBox="0 0 20 14" fill="none" xmlns="http://www.w3.org/2000/svg">
<path fill-rule="evenodd" clip-rule="evenodd" d="M2 0C2.55228 0 3 0.447715 3 1C3 1.55228 2.55228 2 2 2H1C0.447715 2 0 1.55228 0 1C0 0.447715 0.447715 0 1 0H2ZM6 0C5.44772 0 5 0.447715 5 1C5 1.55228 5.44772 2 6 2H19C19.5523 2 20 1.55228 20 1C20 0.447715 19.5523 0 19 0H6ZM6 6C5.44772 6 5 6.44771 5 7C5 7.55229 5.44772 8 6 8H19C19.5523 8 20 7.55229 20 7C20 6.44771 19.5523 6 19 6H6ZM5 13C5 12.4477 5.44772 12 6 12H19C19.5523 12 20 12.4477 20 13C20 13.5523 19.5523 14 19 14H6C5.44772 14 5 13.5523 5 13ZM3 7C3 6.44771 2.55228 6 2 6H1C0.447715 6 0 6.44771 0 7C0 7.55229 0.447715 8 1 8H2C2.55228 8 3 7.55229 3 7ZM2 12C2.55228 12 3 12.4477 3 13C3 13.5523 2.55228 14 2 14H1C0.447715 14 0 13.5523 0 13C0 12.4477 0.447715 12 1 12H2Z" fill="white"/>
</svg>
