<svg width="24" height="24" viewBox="0 0 24 24" fill="none" xmlns="http://www.w3.org/2000/svg">
<path fill-rule="evenodd" clip-rule="evenodd" d="M17.9047 16.2908C16.9481 16.8431 16.6203 18.0663 17.1726 19.0229C17.7249 19.9794 18.9481 20.3072 19.9047 19.7549C20.8613 19.2026 21.189 17.9794 20.6367 17.0229C20.0844 16.0663 18.8613 15.7385 17.9047 16.2908Z" stroke="white" stroke-width="2" stroke-linecap="round" stroke-linejoin="round"/>
<path fill-rule="evenodd" clip-rule="evenodd" d="M7.08691 18.0497C7.08691 16.9451 6.19148 16.0497 5.08691 16.0497C3.98234 16.0497 3.08691 16.9451 3.08691 18.0497C3.08691 19.1542 3.98234 20.0497 5.08691 20.0497C6.19148 20.0497 7.08691 19.1542 7.08691 18.0497Z" stroke="white" stroke-width="2" stroke-linecap="round" stroke-linejoin="round"/>
<path fill-rule="evenodd" clip-rule="evenodd" d="M10.9996 7.7235C11.9562 8.27579 13.1794 7.94804 13.7317 6.99145C14.284 6.03487 13.9562 4.81168 12.9996 4.2594C12.043 3.70711 10.8199 4.03486 10.2676 4.99145C9.71529 5.94804 10.043 7.17122 10.9996 7.7235Z" stroke="white" stroke-width="2" stroke-linecap="round" stroke-linejoin="round"/>
<path d="M17.4053 15.4249L14.9053 11.0948" stroke="white" stroke-width="2" stroke-linecap="round" stroke-linejoin="round"/>
<path d="M8.08691 18.0497L13.0869 18.0497" stroke="white" stroke-width="2" stroke-linecap="round" stroke-linejoin="round"/>
<path d="M10.5 8.58943L8 12.9196" stroke="white" stroke-width="2" stroke-linecap="round" stroke-linejoin="round"/>
</svg>
