<svg width="24" height="24" viewBox="0 0 24 24" fill="white" xmlns="http://www.w3.org/2000/svg">
<path fill-rule="evenodd" clip-rule="evenodd" d="M2 10.5C2 5.80558 5.80558 2 10.5 2C15.1944 2 19 5.80558 19 10.5C19 15.1944 15.1944 19 10.5 19C5.80558 19 2 15.1944 2 10.5ZM10.5 4C6.91015 4 4 6.91015 4 10.5C4 14.0899 6.91015 17 10.5 17C14.0899 17 17 14.0899 17 10.5C17 6.91015 14.0899 4 10.5 4Z"/>
<path fill-rule="evenodd" clip-rule="evenodd" d="M15.0927 15.0929C15.4832 14.7024 16.1164 14.7024 16.5069 15.0929L21.7069 20.2929C22.0974 20.6834 22.0974 21.3166 21.7069 21.7071C21.3164 22.0976 20.6832 22.0976 20.2927 21.7071L15.0927 16.5071C14.7022 16.1166 14.7022 15.4834 15.0927 15.0929Z"/>
</svg>
