<svg width="20" height="22" viewBox="0 0 20 22" fill="none" xmlns="http://www.w3.org/2000/svg">
<path fill-rule="evenodd" clip-rule="evenodd" d="M12 4C12 1.79086 13.7909 0 16 0C18.2091 0 20 1.79086 20 4C20 6.20914 18.2091 8 16 8C14.8885 8 13.883 7.54668 13.1581 6.81485L7.85034 9.91232C7.94784 10.2581 8 10.623 8 11C8 11.3768 7.9479 11.7415 7.8505 12.0871L13.1613 15.1819C13.886 14.452 14.8902 14 16 14C18.2091 14 20 15.7909 20 18C20 20.2091 18.2091 22 16 22C13.7909 22 12 20.2091 12 18C12 17.6214 12.0526 17.255 12.1509 16.9079L6.84234 13.8144C6.11741 14.5465 5.11167 15 4 15C1.79086 15 0 13.2091 0 11C0 8.79086 1.79086 7 4 7C5.11146 7 6.11704 7.45332 6.84194 8.18515L12.1497 5.08768C12.0522 4.74185 12 4.37702 12 4ZM14.3003 5.05457C14.2919 5.03823 14.2831 5.02203 14.2737 5.00597C14.2642 4.9898 14.2544 4.97399 14.2442 4.95855C14.0885 4.67393 14 4.3473 14 4C14 2.89543 14.8954 2 16 2C17.1046 2 18 2.89543 18 4C18 5.10457 17.1046 6 16 6C15.2825 6 14.6532 5.62215 14.3003 5.05457ZM5.6997 9.94543C5.3468 9.37785 4.71753 9 4 9C2.89543 9 2 9.89543 2 11C2 12.1046 2.89543 13 4 13C4.71753 13 5.3468 12.6221 5.6997 12.0546C5.70798 12.0384 5.71674 12.0224 5.72599 12.0065C5.73553 11.9902 5.74546 11.9742 5.75576 11.9585C5.91148 11.6739 6 11.3473 6 11C6 10.6527 5.91147 10.3261 5.75576 10.0414C5.74557 10.026 5.73575 10.0102 5.72631 9.99403C5.71695 9.97798 5.70808 9.96177 5.6997 9.94543ZM14.284 16.9935C14.2629 17.0296 14.24 17.064 14.2153 17.0964C14.0776 17.3678 14 17.6749 14 18C14 19.1046 14.8954 20 16 20C17.1046 20 18 19.1046 18 18C18 16.8954 17.1046 16 16 16C15.3072 16 14.6966 16.3523 14.3377 16.8875C14.3221 16.9234 14.3042 16.9588 14.284 16.9935Z" fill="#8E939A"/>
</svg>
