<svg width="48" height="48" viewBox="0 0 48 48" fill="none" xmlns="http://www.w3.org/2000/svg">
<circle opacity="0.2" cx="24" cy="24" r="24" fill="#F49302"/>
<path d="M24 16.5C24.8284 16.5 25.5 17.1716 25.5 18V24C25.5 24.8284 24.8284 25.5 24 25.5C23.1716 25.5 22.5 24.8284 22.5 24V18C22.5 17.1716 23.1716 16.5 24 16.5Z" fill="#F49302"/>
<path d="M24 31.5C24.8284 31.5 25.5 30.8284 25.5 30C25.5 29.1716 24.8284 28.5 24 28.5C23.1716 28.5 22.5 29.1716 22.5 30C22.5 30.8284 23.1716 31.5 24 31.5Z" fill="#F49302"/>
<path fill-rule="evenodd" clip-rule="evenodd" d="M7.5 24C7.5 14.8873 14.8873 7.5 24 7.5C33.1127 7.5 40.5 14.8873 40.5 24C40.5 33.1127 33.1127 40.5 24 40.5C14.8873 40.5 7.5 33.1127 7.5 24ZM24 10.5C16.5441 10.5 10.5 16.5441 10.5 24C10.5 31.4558 16.5441 37.5 24 37.5C31.4558 37.5 37.5 31.4558 37.5 24C37.5 16.5441 31.4558 10.5 24 10.5Z" fill="#F49302"/>
</svg>
