<svg width="24" height="24" viewBox="0 0 24 24" fill="none" xmlns="http://www.w3.org/2000/svg">
<circle cx="12" cy="12" r="12" fill="#131313"/>
<path d="M16.2186 5.71563L13.2974 10.0552C13.2552 10.1182 13.2374 10.1945 13.2474 10.2698C13.2574 10.345 13.2946 10.414 13.3519 10.4637C13.4092 10.5134 13.4827 10.5404 13.5585 10.5397C13.6344 10.5389 13.7073 10.5104 13.7636 10.4596L16.6382 7.95541C16.6549 7.94028 16.6758 7.93056 16.6981 7.9275C16.7204 7.92445 16.7431 7.92821 16.7633 7.93829C16.7834 7.94838 16.8001 7.96431 16.811 7.98402C16.822 8.00373 16.8267 8.02628 16.8246 8.04874V15.8724C16.8243 15.8957 16.8171 15.9184 16.8037 15.9375C16.7904 15.9567 16.7717 15.9714 16.7499 15.9797C16.7282 15.9881 16.7045 15.9898 16.6818 15.9845C16.6591 15.9792 16.6385 15.9673 16.6226 15.9502L7.9212 5.52899C7.78419 5.36095 7.61099 5.2261 7.41456 5.13452C7.21814 5.04294 7.00357 4.99701 6.78691 5.00015H6.47614C6.08297 5.00344 5.70706 5.1623 5.4305 5.44206C5.15393 5.72182 4.99917 6.09975 5 6.49334V17.5056C4.99973 17.8314 5.10594 18.1484 5.30243 18.4082C5.49892 18.6679 5.7749 18.8562 6.08828 18.9444C6.40166 19.0325 6.73523 19.0156 7.03811 18.8962C7.34099 18.7768 7.59656 18.5616 7.76582 18.2833L10.687 13.9437C10.7293 13.8807 10.7471 13.8044 10.737 13.7291C10.727 13.6539 10.6898 13.5849 10.6325 13.5352C10.5752 13.4855 10.5018 13.4585 10.4259 13.4592C10.3501 13.46 10.2772 13.4885 10.2209 13.5393L7.34628 16.0279C7.32958 16.0431 7.3087 16.0528 7.28638 16.0558C7.26406 16.0589 7.24134 16.0551 7.2212 16.0451C7.20105 16.035 7.18441 16.019 7.17346 15.9993C7.16251 15.9796 7.15776 15.9571 7.15983 15.9346V8.12651C7.16013 8.10319 7.16741 8.0805 7.18072 8.06136C7.19404 8.04223 7.21277 8.02753 7.23452 8.01916C7.25626 8.01078 7.28001 8.00913 7.3027 8.0144C7.32539 8.01967 7.34599 8.03163 7.36182 8.04874L16.0633 18.4699C16.2014 18.6367 16.3748 18.7706 16.571 18.8621C16.7671 18.9535 16.9812 19.0002 17.1976 18.9988H17.5083C17.9039 18.9988 18.2834 18.8414 18.5631 18.5614C18.8428 18.2814 19 17.9016 19 17.5056V6.49334C18.9939 6.09653 18.8327 5.71793 18.5509 5.43877C18.2691 5.15961 17.8892 5.00214 17.4928 5.00015C17.2371 5.00062 16.9857 5.06662 16.7627 5.19186C16.5396 5.3171 16.3523 5.49742 16.2186 5.71563Z" fill="white"/>
</svg>
